<svg width="16" height="16" viewBox="0 0 16 16" fill="none" xmlns="http://www.w3.org/2000/svg">
<path d="M10.8357 8L15.3031 3.53258C15.8513 2.98437 15.8513 2.09553 15.3031 1.54687L14.3103 0.554013C13.7621 0.00579923 12.8732 0.00579923 12.3246 0.554013L7.85714 5.02142L3.38973 0.554013C2.84152 0.00579923 1.95268 0.00579923 1.40402 0.554013L0.411161 1.54687C-0.137054 2.09508 -0.137054 2.98392 0.411161 3.53258L4.87857 8L0.411161 12.4674C-0.137054 13.0156 -0.137054 13.9045 0.411161 14.4531L1.40402 15.446C1.95223 15.9942 2.84152 15.9942 3.38973 15.446L7.85714 10.9786L12.3246 15.446C12.8728 15.9942 13.7621 15.9942 14.3103 15.446L15.3031 14.4531C15.8513 13.9049 15.8513 13.0161 15.3031 12.4674L10.8357 8Z" fill="#172B4D"/>
</svg>
